Coordinates
version=1
nRows=6
nColumns=46
inDegrees=yes

Units are S.I. units (second, meters, Newtons, ...)
Angles are in degrees.

endheader
time	pelvis_tilt	pelvis_list	pelvis_rotation	pelvis_tx	pelvis_ty	pelvis_tz	bb_angle	bb_tx	bb_ty	bb_tz	hip_flexion_r	hip_adduction_r	hip_rotation_r	knee_angle_r	knee_angle_r_beta	ankle_angle_r	subtalar_angle_r	mtp_angle_r	crank_angle_r	hip_flexion_l	hip_adduction_l	hip_rotation_l	knee_angle_l	knee_angle_l_beta	ankle_angle_l	subtalar_angle_l	mtp_angle_l	crank_angle_l	lumbar_extension	lumbar_bending	lumbar_rotation	arm_flex_r	arm_add_r	arm_rot_r	elbow_flex_r	pro_sup_r	wrist_flex_r	wrist_dev_r	arm_flex_l	arm_add_l	arm_rot_l	elbow_flex_l	pro_sup_l	wrist_flex_l	wrist_dev_l
      0.00000000	    -15.54604011	     -3.50722646	      1.19238719	      0.06545779	      1.08948720	     -0.27976871	      0.00000000	      0.50000000	      0.00000000	      0.25000000	     77.53568973	     -4.45445458	     -1.77246579	     81.43452858	      1.42130065	     14.30091192	     -6.21921730	      0.00000000	      0.00000000	     51.14016535	    -10.09691231	     -0.27965943	     75.89607819	      1.32463645	     15.38426316	     -0.66250255	      0.00000000	      0.00000000	    -51.45467623	     -0.04302651	      4.47202055	     89.41892681	    -13.34900553	     40.93670572	     27.21124197	     28.29116679	      0.00000000	      0.00000000	     89.41685560	     -5.47500940	     44.93293196	     30.70678200	     29.28424806	      0.00000000	      0.00000000
      0.00500000	    -15.18345675	     -3.50754318	      0.92445140	      0.06575303	      1.09027872	     -0.27921650	      0.00000000	      0.50000000	      0.00000000	      0.25000000	     77.08492806	     -4.10549535	     -1.69868841	     81.34602188	      1.41975592	     14.36913717	     -6.29817554	      0.00000000	      0.00000000	     50.60968573	    -10.47244662	     -0.57882721	     75.83776865	      1.32361876	     15.82222673	      0.16685062	      0.00000000	      0.00000000	    -51.99608021	     -0.33634304	      4.98674110	     89.37038782	    -13.78501738	     39.13851665	     28.33614913	     28.16398210	      0.00000000	      0.00000000	     89.39661410	     -4.97331130	     43.55562826	     31.32678956	     29.16763168	      0.00000000	      0.00000000
      0.01000000	    -15.54800851	     -3.49409729	      1.18077144	      0.06552612	      1.08944694	     -0.27968173	      0.00000000	      0.50000000	      0.00000000	      0.25000000	     77.53114818	     -4.41703339	     -1.73155695	     81.43572668	      1.42132156	     14.33196200	     -6.23301442	      0.00000000	      0.00000000	     51.14977394	    -10.12518785	     -0.31962191	     75.92033018	      1.32505973	     15.38046966	     -0.64343344	      0.00000000	      0.00000000	    -51.44312768	     -0.08629294	      4.39736708	     89.42906530	    -13.45896826	     41.69069068	     27.22347946	     28.03721120	      0.00000000	      0.00000000	     89.41263173	     -5.81103990	     45.48938954	     31.04573748	     29.18082761	      0.00000000	      0.00000000
      0.01500000	    -15.53936778	     -3.55366894	      1.27356725	      0.06551959	      1.08958486	     -0.27998366	      0.00000000	      0.50000000	      0.00000000	      0.25000000	     77.47067605	     -4.49845423	     -1.81827083	     81.41106735	      1.42089117	     14.37337178	     -6.30581338	      0.00000000	      0.00000000	     51.14933285	    -10.02884379	     -0.17758741	     75.88891332	      1.32451140	     15.30356880	     -0.81056044	      0.00000000	      0.00000000	    -51.47339688	      0.00284125	      4.63086921	     89.38560864	    -13.30226604	     39.22843836	     27.25351696	     28.26893556	      0.00000000	      0.00000000	     89.42599057	     -4.78086971	     43.94040895	     30.09307960	     29.30732582	      0.00000000	      0.00000000
      0.02000000	    -15.59144563	     -3.54771364	      1.20537997	      0.06548596	      1.08963069	     -0.27982715	      0.00000000	      0.50000000	      0.00000000	      0.25000000	     77.52739044	     -4.40830018	     -1.73773546	     81.40592115	      1.42080135	     14.41041854	     -6.25739435	      0.00000000	      0.00000000	     51.19435842	    -10.07984956	     -0.19793319	     75.88625575	      1.32446502	     15.30452322	     -0.73135486	      0.00000000	      0.00000000	    -51.40600625	     -0.03141067	      4.43684714	     89.42799221	    -13.59342114	     41.93224888	     27.18603713	     29.00884865	      0.00000000	      0.00000000	     89.42057801	     -5.86062379	     45.75674021	     30.97523699	     30.13544250	      0.00000000	      0.00000000
      0.02500000	    -15.58198319	     -3.55264822	      1.21812490	      0.06554580	      1.08966212	     -0.27985557	      0.00000000	      0.50000000	      0.00000000	      0.25000000	     77.50785267	     -4.41519039	     -1.74319339	     81.40380613	      1.42076444	     14.41916269	     -6.25777683	      0.00000000	      0.00000000	     51.18580644	    -10.07929384	     -0.19268743	     75.88726658	      1.32448266	     15.31509087	     -0.72877967	      0.00000000	      0.00000000	    -51.41352389	     -0.03252206	      4.43049913	     89.42689235	    -13.62544727	     42.08493051	     27.29412927	     28.16245237	      0.00000000	      0.00000000	     89.41605636	     -5.79250429	     45.62623582	     31.03950532	     29.36607704	      0.00000000	      0.00000000
